<svg width="1600" height="900" viewBox="0 0 1600 900" fill="none" xmlns="http://www.w3.org/2000/svg">
  <defs>
    <linearGradient id="bg" x1="120" y1="120" x2="1480" y2="780" gradientUnits="userSpaceOnUse">
      <stop stop-color="#111827"/>
      <stop offset="1" stop-color="#0369A1"/>
    </linearGradient>
  </defs>
  <rect width="1600" height="900" rx="36" fill="url(#bg)"/>
  <rect x="120" y="140" width="420" height="620" rx="28" fill="#0F172A" stroke="#334155" stroke-width="2"/>
  <rect x="620" y="170" width="320" height="140" rx="24" fill="#E0F2FE"/>
  <rect x="620" y="380" width="320" height="140" rx="24" fill="#BAE6FD"/>
  <rect x="620" y="590" width="320" height="140" rx="24" fill="#7DD3FC"/>
  <rect x="1050" y="210" width="360" height="90" rx="20" fill="#082F49" stroke="#38BDF8" stroke-width="2"/>
  <rect x="1050" y="420" width="360" height="90" rx="20" fill="#082F49" stroke="#38BDF8" stroke-width="2"/>
  <rect x="1050" y="630" width="360" height="90" rx="20" fill="#082F49" stroke="#38BDF8" stroke-width="2"/>
  <rect x="180" y="220" width="300" height="54" rx="14" fill="#E2E8F0"/>
  <rect x="180" y="310" width="300" height="54" rx="14" fill="#CBD5E1"/>
  <rect x="180" y="400" width="300" height="54" rx="14" fill="#94A3B8"/>
  <rect x="180" y="490" width="300" height="54" rx="14" fill="#64748B"/>
  <rect x="180" y="580" width="300" height="54" rx="14" fill="#475569"/>
  <path d="M540 247C585 247 585 240 620 240" stroke="#E0F2FE" stroke-width="8" stroke-linecap="round"/>
  <path d="M540 427C585 427 585 450 620 450" stroke="#BAE6FD" stroke-width="8" stroke-linecap="round"/>
  <path d="M540 607C585 607 585 660 620 660" stroke="#7DD3FC" stroke-width="8" stroke-linecap="round"/>
  <path d="M940 240H1010" stroke="#F8FAFC" stroke-width="8" stroke-linecap="round"/>
  <path d="M940 450H1010" stroke="#F8FAFC" stroke-width="8" stroke-linecap="round"/>
  <path d="M940 660H1010" stroke="#F8FAFC" stroke-width="8" stroke-linecap="round"/>
  <text x="684" y="248" fill="#0F172A" font-family="Arial, sans-serif" font-size="32" font-weight="700">scan files</text>
  <text x="668" y="458" fill="#0F172A" font-family="Arial, sans-serif" font-size="32" font-weight="700">build nav tree</text>
  <text x="670" y="668" fill="#0F172A" font-family="Arial, sans-serif" font-size="32" font-weight="700">sync routes</text>
  <text x="1140" y="266" fill="#E0F2FE" font-family="Arial, sans-serif" font-size="30" font-weight="700">sidebar</text>
  <text x="1130" y="476" fill="#E0F2FE" font-family="Arial, sans-serif" font-size="30" font-weight="700">breadcrumbs</text>
  <text x="1150" y="686" fill="#E0F2FE" font-family="Arial, sans-serif" font-size="30" font-weight="700">URL map</text>
</svg>
