<svg width="1600" height="900" viewBox="0 0 1600 900" fill="none" xmlns="http://www.w3.org/2000/svg">
  <defs>
    <linearGradient id="bg" x1="120" y1="80" x2="1480" y2="820" gradientUnits="userSpaceOnUse">
      <stop stop-color="#0F172A"/>
      <stop offset="1" stop-color="#1D4ED8"/>
    </linearGradient>
    <linearGradient id="card" x1="0" y1="0" x2="1" y2="1">
      <stop stop-color="#F8FAFC"/>
      <stop offset="1" stop-color="#DBEAFE"/>
    </linearGradient>
  </defs>
  <rect width="1600" height="900" rx="36" fill="url(#bg)"/>
  <circle cx="1280" cy="180" r="150" fill="#38BDF8" fill-opacity="0.12"/>
  <circle cx="260" cy="730" r="210" fill="#F59E0B" fill-opacity="0.12"/>
  <rect x="110" y="150" width="410" height="560" rx="28" fill="#0B1220" stroke="#334155" stroke-width="2"/>
  <rect x="160" y="210" width="310" height="72" rx="16" fill="url(#card)"/>
  <rect x="160" y="310" width="310" height="72" rx="16" fill="url(#card)" fill-opacity="0.92"/>
  <rect x="160" y="410" width="310" height="72" rx="16" fill="url(#card)" fill-opacity="0.84"/>
  <rect x="160" y="510" width="310" height="72" rx="16" fill="url(#card)" fill-opacity="0.76"/>
  <rect x="650" y="110" width="300" height="160" rx="24" fill="#EFF6FF"/>
  <rect x="650" y="370" width="300" height="160" rx="24" fill="#EFF6FF"/>
  <rect x="650" y="630" width="300" height="160" rx="24" fill="#EFF6FF"/>
  <rect x="1070" y="170" width="360" height="100" rx="24" fill="#082F49" stroke="#38BDF8" stroke-width="2"/>
  <rect x="1070" y="410" width="360" height="100" rx="24" fill="#082F49" stroke="#38BDF8" stroke-width="2"/>
  <rect x="1070" y="650" width="360" height="100" rx="24" fill="#082F49" stroke="#38BDF8" stroke-width="2"/>
  <path d="M520 280C575 280 595 190 650 190" stroke="#93C5FD" stroke-width="10" stroke-linecap="round"/>
  <path d="M520 430C575 430 595 450 650 450" stroke="#93C5FD" stroke-width="10" stroke-linecap="round"/>
  <path d="M520 580C575 580 595 710 650 710" stroke="#93C5FD" stroke-width="10" stroke-linecap="round"/>
  <path d="M950 190H1030" stroke="#F8FAFC" stroke-width="10" stroke-linecap="round"/>
  <path d="M950 450H1030" stroke="#F8FAFC" stroke-width="10" stroke-linecap="round"/>
  <path d="M950 710H1030" stroke="#F8FAFC" stroke-width="10" stroke-linecap="round"/>
  <text x="725" y="200" fill="#0F172A" font-family="Arial, sans-serif" font-size="40" font-weight="700">slug</text>
  <text x="722" y="246" fill="#475569" font-family="Arial, sans-serif" font-size="28">content-scaling</text>
  <text x="722" y="460" fill="#475569" font-family="Arial, sans-serif" font-size="34" font-weight="700">lang: ru</text>
  <text x="722" y="720" fill="#475569" font-family="Arial, sans-serif" font-size="34" font-weight="700">lang: en / uk / it</text>
  <text x="1160" y="232" fill="#E0F2FE" font-family="Arial, sans-serif" font-size="34" font-weight="700">/ru/blog/...</text>
  <text x="1160" y="472" fill="#E0F2FE" font-family="Arial, sans-serif" font-size="34" font-weight="700">/en/blog/...</text>
  <text x="1160" y="712" fill="#E0F2FE" font-family="Arial, sans-serif" font-size="34" font-weight="700">SEO + tags</text>
</svg>
