<svg width="1600" height="900" viewBox="0 0 1600 900" fill="none" xmlns="http://www.w3.org/2000/svg">
  <defs>
    <linearGradient id="solutionBg" x1="190" y1="100" x2="1460" y2="770" gradientUnits="userSpaceOnUse">
      <stop stop-color="#022C22"/>
      <stop offset="1" stop-color="#0F766E"/>
    </linearGradient>
  </defs>
  <rect width="1600" height="900" rx="36" fill="url(#solutionBg)"/>
  <rect x="140" y="200" width="520" height="500" rx="32" fill="#ECFDF5" fill-opacity="0.96"/>
  <rect x="780" y="130" width="260" height="130" rx="26" fill="#D1FAE5"/>
  <rect x="780" y="385" width="260" height="130" rx="26" fill="#D1FAE5"/>
  <rect x="780" y="640" width="260" height="130" rx="26" fill="#D1FAE5"/>
  <rect x="1140" y="130" width="320" height="130" rx="26" fill="#042F2E" stroke="#5EEAD4" stroke-width="2"/>
  <rect x="1140" y="385" width="320" height="130" rx="26" fill="#042F2E" stroke="#5EEAD4" stroke-width="2"/>
  <rect x="1140" y="640" width="320" height="130" rx="26" fill="#042F2E" stroke="#5EEAD4" stroke-width="2"/>
  <rect x="210" y="280" width="380" height="66" rx="18" fill="#0F766E"/>
  <rect x="210" y="380" width="380" height="66" rx="18" fill="#14B8A6"/>
  <rect x="210" y="480" width="380" height="66" rx="18" fill="#2DD4BF"/>
  <rect x="210" y="580" width="380" height="66" rx="18" fill="#99F6E4"/>
  <path d="M660 450H760" stroke="#CCFBF1" stroke-width="10" stroke-linecap="round"/>
  <path d="M1040 195H1110" stroke="#F0FDFA" stroke-width="10" stroke-linecap="round"/>
  <path d="M1040 450H1110" stroke="#F0FDFA" stroke-width="10" stroke-linecap="round"/>
  <path d="M1040 705H1110" stroke="#F0FDFA" stroke-width="10" stroke-linecap="round"/>
  <text x="220" y="255" fill="#064E3B" font-family="Arial, sans-serif" font-size="42" font-weight="700">post collection</text>
  <text x="245" y="324" fill="#ECFEFF" font-family="Arial, sans-serif" font-size="28" font-weight="700">typed frontmatter</text>
  <text x="245" y="424" fill="#083344" font-family="Arial, sans-serif" font-size="28" font-weight="700">shared basename</text>
  <text x="245" y="524" fill="#083344" font-family="Arial, sans-serif" font-size="28" font-weight="700">normalized tags</text>
  <text x="245" y="624" fill="#134E4A" font-family="Arial, sans-serif" font-size="28" font-weight="700">predictable routes</text>
  <text x="840" y="208" fill="#134E4A" font-family="Arial, sans-serif" font-size="32" font-weight="700">ru</text>
  <text x="836" y="463" fill="#134E4A" font-family="Arial, sans-serif" font-size="32" font-weight="700">en</text>
  <text x="828" y="718" fill="#134E4A" font-family="Arial, sans-serif" font-size="32" font-weight="700">uk / it</text>
  <text x="1180" y="208" fill="#CCFBF1" font-family="Arial, sans-serif" font-size="30" font-weight="700">blog index</text>
  <text x="1180" y="463" fill="#CCFBF1" font-family="Arial, sans-serif" font-size="30" font-weight="700">latest posts</text>
  <text x="1180" y="718" fill="#CCFBF1" font-family="Arial, sans-serif" font-size="30" font-weight="700">tag pages + SEO</text>
</svg>
